<?xml version="1.0" encoding="UTF-8" standalone="no"?>
<svg
   width="150"
   height="50"
   version="1.1"
   id="svg3"
   xmlns="http://www.w3.org/2000/svg"
   xmlns:svg="http://www.w3.org/2000/svg">
  <defs
     id="defs3" />
  <g
     id="text5"
     style="font-weight:600;font-size:17.438px;line-height:1;font-family:'SF Pro Display';-inkscape-font-specification:'SF Pro Display, Semi-Bold';fill:#ffffff;stroke-width:0;stroke-linecap:square"
     aria-label="NyoomEngineering">
    <path
       d="m 52.999997,21.786837 h 2.188264 v -8.642368 h 0.04257 l 6.002827,8.642368 h 1.958369 V 9.5001991 h -2.17975 v 8.6083099 h -0.05109 L 54.975395,9.5001991 h -1.975398 z m 13.359483,2.997156 c 1.881738,0 2.937554,-0.706716 3.62724,-2.690629 l 3.244081,-9.332055 h -2.230837 l -2.120148,7.220422 h -0.0596 l -2.111633,-7.220422 h -2.315984 l 3.244081,9.034042 -0.12772,0.36613 c -0.272469,0.757804 -0.723745,0.987699 -1.532637,0.987699 -0.298013,0 -0.544937,-0.04257 -0.706716,-0.07663 v 1.617783 c 0.25544,0.04257 0.681172,0.09366 1.089875,0.09366 z m 11.520321,-2.818349 c 2.648056,0 4.368014,-1.762532 4.368014,-4.691571 v -0.01703 c 0,-2.91201 -1.745502,-4.683057 -4.376529,-4.683057 -2.622511,0 -4.3595,1.788076 -4.3595,4.683057 v 0.01703 c 0,2.920524 1.711445,4.691571 4.368015,4.691571 z m 0.0085,-1.711444 c -1.35383,0 -2.213809,-1.08136 -2.213809,-2.980127 v -0.01703 c 0,-1.873223 0.877009,-2.963098 2.196779,-2.963098 1.345315,0 2.213809,1.08136 2.213809,2.963098 v 0.01703 c 0,1.890252 -0.85998,2.980127 -2.196779,2.980127 z m 9.715213,1.711444 c 2.648056,0 4.368015,-1.762532 4.368015,-4.691571 v -0.01703 c 0,-2.91201 -1.745503,-4.683057 -4.37653,-4.683057 -2.622511,0 -4.3595,1.788076 -4.3595,4.683057 v 0.01703 c 0,2.920524 1.711445,4.691571 4.368015,4.691571 z m 0.0085,-1.711444 c -1.353829,0 -2.213809,-1.08136 -2.213809,-2.980127 v -0.01703 c 0,-1.873223 0.877009,-2.963098 2.196779,-2.963098 1.345315,0 2.213809,1.08136 2.213809,2.963098 v 0.01703 c 0,1.890252 -0.85998,2.980127 -2.196779,2.980127 z m 5.721843,1.532637 h 2.120148 V 16.26083 c 0,-1.09839 0.71523,-1.898767 1.736988,-1.898767 0.987699,0 1.600754,0.630084 1.600754,1.643327 v 5.781447 h 2.060543 v -5.577095 c 0,-1.089875 0.6982,-1.847679 1.71996,-1.847679 1.03879,0 1.61778,0.638599 1.61778,1.754018 v 5.670756 h 2.12015 v -6.198664 c 0,-1.805106 -1.16651,-3.014186 -2.94607,-3.014186 -1.30274,0 -2.37558,0.698201 -2.80983,1.822135 h -0.0511 c -0.33207,-1.157992 -1.243138,-1.822135 -2.503306,-1.822135 -1.19205,0 -2.120147,0.647113 -2.503306,1.634813 h -0.04257 V 12.761309 H 93.33385 Z"
       id="path3" />
    <path
       d="m 52.999997,39.224838 h 7.952681 V 37.37716 h -5.755902 v -3.499521 h 5.44086 v -1.779561 h -5.44086 v -3.312199 h 5.755902 v -1.847678 h -7.952681 z m 9.647096,0 H 64.76724 V 33.98833 c 0,-1.302742 0.774833,-2.188265 1.992428,-2.188265 1.20908,0 1.805105,0.723745 1.805105,2.009457 v 5.415316 h 2.120148 V 33.38379 c 0,-2.094604 -1.132448,-3.371801 -3.116361,-3.371801 -1.370859,0 -2.290441,0.630084 -2.758746,1.600754 h -0.04257 v -1.413432 h -2.120147 z m 13.802244,3.158935 c 2.613997,0 4.257325,-1.370859 4.257325,-3.414374 v -8.770088 h -2.120148 v 1.532637 h -0.05109 c -0.510879,-1.038787 -1.498578,-1.719959 -2.775775,-1.719959 -2.281926,0 -3.75496,1.754017 -3.75496,4.606425 v 0.0085 c 0,2.809834 1.456005,4.546822 3.720901,4.546822 1.294227,0 2.315985,-0.613054 2.818349,-1.57521 h 0.04257 v 1.302742 c 0,1.149477 -0.757804,1.881737 -2.137177,1.881737 -1.106904,0 -1.830649,-0.391674 -2.060545,-0.911067 l -0.02554,-0.06812 H 72.27716 l 0.01703,0.07663 c 0.255439,1.413432 1.762532,2.503307 4.155148,2.503307 z m -0.0596,-4.844835 c -1.362344,0 -2.222323,-1.09839 -2.222323,-2.877951 v -0.0085 c 0,-1.754017 0.859979,-2.852407 2.222323,-2.852407 1.311256,0 2.205294,1.115419 2.205294,2.860922 v 0.0085 c 0,1.754018 -0.885524,2.869437 -2.205294,2.869436 z m 7.177848,-8.633853 c 0.664143,0 1.175021,-0.527909 1.175021,-1.157993 0,-0.647113 -0.510878,-1.166506 -1.175021,-1.166506 -0.664143,0 -1.183536,0.519393 -1.183536,1.166506 0,0.630084 0.519393,1.157993 1.183536,1.157993 z m -1.064331,10.319753 h 2.120147 v -9.025527 h -2.120147 z m 3.916737,0 h 2.120147 V 33.98833 c 0,-1.302742 0.774833,-2.188265 1.992428,-2.188265 1.20908,0 1.805105,0.723745 1.805105,2.009457 v 5.415316 h 2.120148 V 33.38379 c 0,-2.094604 -1.132449,-3.371801 -3.116362,-3.371801 -1.370858,0 -2.29044,0.630084 -2.758746,1.600754 h -0.04257 v -1.413432 h -2.120147 z m 13.700069,0.178808 c 2.35855,0 3.68684,-1.396402 3.96782,-2.78429 l 0.0255,-0.09366 h -1.98392 l -0.017,0.0596 c -0.20436,0.60454 -0.89404,1.166507 -1.94986,1.166507 -1.37937,0 -2.247864,-0.936611 -2.281923,-2.520336 h 6.317863 v -0.681172 c 0,-2.724687 -1.60075,-4.538307 -4.18069,-4.538307 -2.579935,0 -4.240291,1.873222 -4.240291,4.717115 v 0.0085 c 0,2.869436 1.634812,4.666027 4.342471,4.666027 z m -0.0766,-7.731301 c 1.12393,0 1.94134,0.715231 2.0946,2.145692 h -4.231779 c 0.170293,-1.387888 1.013243,-2.145692 2.137179,-2.145692 z m 9.48532,7.731301 c 2.35855,0 3.68684,-1.396402 3.96782,-2.78429 l 0.0255,-0.09366 h -1.98392 l -0.017,0.0596 c -0.20435,0.60454 -0.89404,1.166507 -1.94985,1.166507 -1.37937,0 -2.24787,-0.936611 -2.28193,-2.520336 h 6.31787 v -0.681172 c 0,-2.724687 -1.60075,-4.538307 -4.18069,-4.538307 -2.57994,0 -4.2403,1.873222 -4.2403,4.717115 v 0.0085 c 0,2.869436 1.63482,4.666027 4.34248,4.666027 z m -0.0766,-7.731301 c 1.12394,0 1.94134,0.715231 2.09461,2.145692 h -4.23178 c 0.17029,-1.387888 1.01324,-2.145692 2.13717,-2.145692 z m 5.5175,7.552493 h 2.12014 V 33.98833 c 0,-1.3368 0.72375,-2.094604 1.92431,-2.094604 0.35762,0 0.68118,0.05109 0.85998,0.119205 v -1.915796 c -0.16177,-0.04257 -0.4087,-0.08515 -0.67265,-0.08515 -1.03879,0 -1.78808,0.655628 -2.06906,1.745503 h -0.0426 v -1.558181 h -2.12014 z m 7.11824,-10.319753 c 0.66414,0 1.17502,-0.527909 1.17502,-1.157993 0,-0.647113 -0.51088,-1.166506 -1.17502,-1.166506 -0.66414,0 -1.18353,0.519393 -1.18353,1.166506 0,0.630084 0.51939,1.157993 1.18353,1.157993 z m -1.06433,10.319753 h 2.12015 v -9.025527 h -2.12015 z m 3.91674,0 h 2.12015 V 33.98833 c 0,-1.302742 0.77483,-2.188265 1.99243,-2.188265 1.20908,0 1.8051,0.723745 1.8051,2.009457 v 5.415316 h 2.12015 V 33.38379 c 0,-2.094604 -1.13245,-3.371801 -3.11636,-3.371801 -1.37086,0 -2.29044,0.630084 -2.75875,1.600754 h -0.0426 v -1.413432 h -2.12015 z m 13.80224,3.158935 c 2.614,0 4.25732,-1.370859 4.25732,-3.414374 v -8.770088 h -2.12014 v 1.532637 h -0.0511 c -0.51088,-1.038787 -1.49858,-1.719959 -2.77578,-1.719959 -2.28192,0 -3.75496,1.754017 -3.75496,4.606425 v 0.0085 c 0,2.809834 1.45601,4.546822 3.72091,4.546822 1.29422,0 2.31598,-0.613054 2.81834,-1.57521 h 0.0426 v 1.302742 c 0,1.149477 -0.75781,1.881737 -2.13718,1.881737 -1.1069,0 -1.83065,-0.391674 -2.06054,-0.911067 l -0.0256,-0.06812 h -2.08609 l 0.017,0.07663 c 0.25544,1.413432 1.76253,2.503307 4.15515,2.503307 z m -0.0596,-4.844835 c -1.36235,0 -2.22233,-1.09839 -2.22233,-2.877951 v -0.0085 c 0,-1.754017 0.85998,-2.852407 2.22233,-2.852407 1.31125,0 2.20529,1.115419 2.20529,2.860922 v 0.0085 c 0,1.754018 -0.88552,2.869437 -2.20529,2.869436 z"
       id="path4" />
  </g>
  <circle
     style="fill:none;fill-opacity:1;stroke:#f2f4f8;stroke-width:2.924;stroke-linecap:square;stroke-dasharray:none;stroke-opacity:1"
     id="path8"
     cx="26.25"
     cy="24.750175"
     r="18.788176" />
  <path
     d="m 18.193996,10.978171 c -4.727,2.77 -7.903,7.910001 -7.887,13.774001 0.027,8.77 7.18,15.887 15.953,15.863 8.773,-0.023 15.89,-7.18 15.867,-15.953 -0.023,-8.77 -7.183,-15.8870007 -15.953,-15.8630007 -1.04694,0.00494 -2.090895,0.1121154 -3.117,0.32 -0.129,0.031 -0.2,0.164 -0.168,0.29 l 0.55,2.2139997 c 0.02885,0.131187 0.159021,0.213777 0.29,0.184 v 0.003 c 0.808307,-0.15668 1.629649,-0.23637 2.453,-0.238 7.242,-0.02 13.152,5.856001 13.172,13.098001 0.02,7.246 -5.86,13.156 -13.102,13.172 -7.242,0.023 -13.152,-5.856 -13.172,-13.098 -0.011,-4.797 2.563,-9.008 6.407,-11.308001 0.117132,-0.06399 0.164753,-0.207728 0.109,-0.329 l -1.07,-2.027 c -0.06367,-0.119657 -0.212131,-0.165269 -0.332,-0.102"
     id="path1"
     style="fill:#ff7eb6;fill-opacity:1" />
  <path
     d="m 22.779996,33.080172 -1.082,2.02 c -0.063,0.12 -0.028,0.28 0.101,0.328 a 11.38,11.38 0 0 0 4.32,0.883 c 6.399,0.054 11.645,-5.11 11.7,-11.508 v -0.098 c 0,-6.344 -5.16,-11.547001 -11.504,-11.602001 -6.399,-0.05 -11.649,5.110001 -11.7,11.508001 l -0.003,0.098 c 0,3.031 1.18,5.797 3.101,7.871 0.09,0.102 0.246,0.121 0.348,0.027 l 1.554,-1.722 c 0.09,-0.102 0.07,-0.254 -0.015,-0.344 l 0.004,-0.004 a 8.77,8.77 0 0 1 -2.219,-5.828 v -0.074 c 0.043,-4.871 4.035,-8.797 8.906,-8.758 4.828,0.039 8.758,4 8.758,8.828 v 0.078 c -0.043,4.867 -4.039,8.797 -8.906,8.754 a 8.775,8.775 0 0 1 -3.031,-0.566 0.257,0.257 0 0 0 -0.332,0.109"
     id="path2"
     style="fill:#33b1ff;fill-opacity:1" />
  <path
     d="m 20.540769,24.676644 -1.428445,-0.154561 c -0.08455,-0.0085 -0.169346,0.04952 -0.166957,0.135753 a 7.1352288,7.1352288 0 0 0 0.501352,2.718787 c 1.471577,3.732696 5.705801,5.569506 9.438143,4.098733 l 0.05708,-0.02264 C 32.62998,29.962655 34.442735,25.740863 32.984644,22.039913 31.510727,18.308165 27.2779,16.468085 23.5465,17.941183 l -0.05773,0.02105 c -1.762046,0.711905 -3.092879,2.047566 -3.847385,3.651459 -0.03816,0.07625 -0.01255,0.17143 0.0659,0.208695 l 1.366071,0.498943 c 0.08042,0.02835 0.164113,-0.01887 0.19644,-0.08956 l 0.0024,0.0024 a 5.4987658,5.4987658 0 0 1 2.866914,-2.658909 l 0.04296,-0.01756 c 2.841813,-1.119093 6.061791,0.279499 7.183208,3.120377 1.11132,2.815871 -0.268312,6.030899 -3.075029,7.164884 l -0.04542,0.01812 c -2.83937,1.118076 -6.06261,-0.281887 -7.18076,-3.121378 A 5.5019009,5.5019009 0 0 1 20.681242,24.84469 0.16113828,0.16113828 0 0 0 20.5399,24.677283"
     id="path9"
     style="fill:#be95ff;fill-opacity:1;stroke-width:1" />
</svg>
